<?xml version="1.0" standalone="no"?><!DOCTYPE svg PUBLIC "-//W3C//DTD SVG 1.1//EN" "http://www.w3.org/Graphics/SVG/1.1/DTD/svg11.dtd"><svg t="1779973438240" class="icon" viewBox="0 0 1024 1024" version="1.1" xmlns="http://www.w3.org/2000/svg" p-id="14048" xmlns:xlink="http://www.w3.org/1999/xlink" width="200" height="200"><path d="M660.3136 737.0624a13.0944 13.0944 0 0 0 1.6384 19.968 167.9744 167.9744 0 0 1 51.84 100.9152 54.8096 54.8096 0 0 0 67.2896 38.4 54.7072 54.7072 0 0 0-8.704-107.2 168.256 168.256 0 0 1-93.5296-52.096 13.1456 13.1456 0 0 0-18.5344 0z" fill="#FB6500" p-id="14049"></path><path d="M879.296 653.056a54.5408 54.5408 0 0 0-15.6928 32.9216 167.8592 167.8592 0 0 1-51.84 93.4784 13.1072 13.1072 0 0 0-0.384 18.5088 13.0688 13.0688 0 0 0 20.3392-1.8176 167.5264 167.5264 0 0 1 100.7232-51.7248 54.6816 54.6816 0 0 0-28.544-105.5616 54.592 54.592 0 0 0-24.4352 14.208h-0.1664z" fill="#0082EF" p-id="14050"></path><path d="M727.424 501.6704a54.7072 54.7072 0 0 0 32.9472 93.056c36.0192 6.656 68.864 24.8832 93.568 51.9296a13.1072 13.1072 0 1 0 16.7168-19.9808 168.064 168.064 0 0 1-51.7888-100.928 54.7328 54.7328 0 0 0-91.4304-24.0768z" fill="#2DBC00" p-id="14051"></path><path d="M703.424 585.28l-0.9728 0.9856a166.8608 166.8608 0 0 1-101.9392 53.4912 54.3232 54.3232 0 0 0-38.5664 66.3424c2.4832 9.472 7.4624 18.0736 14.4256 24.9344a54.3616 54.3616 0 0 0 77.056-0.1024 54.7072 54.7072 0 0 0 15.5904-32.7808 167.9616 167.9616 0 0 1 51.8656-93.4016 13.12 13.12 0 0 0 0.9728-18.4832 13.0176 13.0176 0 0 0-18.432-0.9856z" fill="#FFCC00" p-id="14052"></path><path d="M381.8368 130.5344c-94.4256 10.4576-180.032 50.9952-241.5104 114.3296a320.2944 320.2944 0 0 0-58.9696 83.2896 291.1616 291.1616 0 0 0 20.352 292.928c16.704 25.344 44.1344 56.9984 69.1968 79.488l-11.3536 89.6256-1.2544 3.7888c-0.32 1.1136-0.32 2.3808-0.4736 3.4944l-0.32 2.8416 0.32 2.8544a28.7232 28.7232 0 0 0 31.0528 26.24c4.288-0.384 8.4352-1.7152 12.1344-3.9168h0.4736l1.7408-1.2672 27.1104-13.6192 80.8704-40.8448a415.744 415.744 0 0 0 118.2464 16.3072 422.4 422.4 0 0 0 145.024-25.344 52.736 52.736 0 0 1-35.776-55.2576 354.6496 354.6496 0 0 1-149.1328 14.8864l-8.0512-1.1008a359.168 359.168 0 0 1-53.5936-11.2512 36.4288 36.4288 0 0 0-28.6976 3.008l-2.2016 1.1136-66.5344 39.2704-2.8288 1.7408c-1.5744 0.9472-2.368 1.2672-3.1616 1.2672a4.5824 4.5824 0 0 1-4.2496-4.7488l2.5216-10.2912 2.9952-11.2512 4.736-18.5216 5.504-20.5824a28.096 28.096 0 0 0-10.0864-31.1936 291.584 291.584 0 0 1-67.1488-70.3104 229.3376 229.3376 0 0 1-16.3968-230.8608 263.9232 263.9232 0 0 1 47.296-66.496c50.432-52.2496 121.3824-85.504 199.8848-94.0544 27.136-3.008 54.528-3.008 81.664 0 78.0416 9.024 148.6592 42.752 198.7968 94.6816a259.6736 259.6736 0 0 1 46.8224 66.816c15.616 32 23.488 65.8816 23.488 100.5568 0 3.6352-0.32 7.2832-0.4736 10.7648a52.3264 52.3264 0 0 1 64.64 7.6032l2.3552 2.8416a289.5872 289.5872 0 0 0-28.6848-150.1056 323.3408 323.3408 0 0 0-58.3296-83.2896 394.9952 394.9952 0 0 0-240.576-115.1104 441.536 441.536 0 0 0-97.4208-0.32z" fill="#0082EF" p-id="14053"></path></svg>